<mxfile host="app.diagrams.net" modified="2023-07-10T01:59:28.992Z" agent="Mozilla/5.0 (Windows NT 10.0; Win64; x64) AppleWebKit/537.36 (KHTML, like Gecko) Chrome/114.0.0.0 Safari/537.36" etag="aKijYdHeYvDpzEkx51OF" version="21.5.2" type="github">
  <diagram name="Page-1" id="nUyvdHh5cfKOgp0yRK-c">
    <mxGraphModel dx="783" dy="523" grid="1" gridSize="10" guides="1" tooltips="1" connect="1" arrows="1" fold="1" page="1" pageScale="1" pageWidth="850" pageHeight="1100" math="0" shadow="0">
      <root>
        <mxCell id="0" />
        <mxCell id="1" parent="0" />
        <mxCell id="P1zfHWuYSgUX7Jc0V1zc-1" value="&lt;p style=&quot;margin:0px;margin-top:4px;text-align:center;&quot;&gt;&lt;b&gt;Singleton&lt;/b&gt;&lt;/p&gt;&lt;hr size=&quot;1&quot;&gt;&lt;p style=&quot;margin:0px;margin-left:4px;&quot;&gt;- instance: Singleton?&lt;/p&gt;&lt;hr size=&quot;1&quot;&gt;&lt;p style=&quot;margin:0px;margin-left:4px;&quot;&gt;+ getIntance(): Singleton&lt;/p&gt;&lt;p style=&quot;margin:0px;margin-left:4px;&quot;&gt;&lt;br&gt;&lt;/p&gt;&lt;p style=&quot;margin:0px;margin-left:4px;&quot;&gt;- Singleton()&lt;/p&gt;" style="verticalAlign=top;align=left;overflow=fill;fontSize=12;fontFamily=Helvetica;html=1;whiteSpace=wrap;" vertex="1" parent="1">
          <mxGeometry x="330" y="230" width="160" height="110" as="geometry" />
        </mxCell>
        <mxCell id="P1zfHWuYSgUX7Jc0V1zc-7" value="1" style="endArrow=open;html=1;endSize=12;startArrow=diamondThin;startSize=14;startFill=0;edgeStyle=orthogonalEdgeStyle;align=left;verticalAlign=bottom;rounded=0;entryX=1;entryY=0.25;entryDx=0;entryDy=0;" edge="1" parent="1" target="P1zfHWuYSgUX7Jc0V1zc-1">
          <mxGeometry x="-1" y="3" relative="1" as="geometry">
            <mxPoint x="490" y="310" as="sourcePoint" />
            <mxPoint x="590" y="240" as="targetPoint" />
            <Array as="points">
              <mxPoint x="570" y="310" />
              <mxPoint x="570" y="258" />
            </Array>
          </mxGeometry>
        </mxCell>
        <mxCell id="P1zfHWuYSgUX7Jc0V1zc-8" value="&lt;div&gt;&lt;font face=&quot;Lucida Console&quot;&gt;if instance==null {&lt;/font&gt;&lt;/div&gt;&lt;div&gt;&lt;font face=&quot;Lucida Console&quot;&gt;&amp;nbsp; &amp;nbsp; instance = new Singleton();&lt;/font&gt;&lt;/div&gt;&lt;div&gt;&lt;font face=&quot;Lucida Console&quot;&gt;}&lt;/font&gt;&lt;/div&gt;&lt;div&gt;&lt;font face=&quot;Lucida Console&quot;&gt;&lt;br&gt;&lt;/font&gt;&lt;/div&gt;&lt;div&gt;&lt;font face=&quot;Lucida Console&quot;&gt;return instance;&lt;/font&gt;&lt;/div&gt;" style="shape=note;whiteSpace=wrap;html=1;backgroundOutline=1;darkOpacity=0.05;align=left;" vertex="1" parent="1">
          <mxGeometry x="20" y="260" width="250" height="110" as="geometry" />
        </mxCell>
        <mxCell id="P1zfHWuYSgUX7Jc0V1zc-10" value="" style="endArrow=none;html=1;rounded=0;exitX=0.998;exitY=0.414;exitDx=0;exitDy=0;exitPerimeter=0;entryX=0.016;entryY=0.577;entryDx=0;entryDy=0;entryPerimeter=0;" edge="1" parent="1" source="P1zfHWuYSgUX7Jc0V1zc-8" target="P1zfHWuYSgUX7Jc0V1zc-1">
          <mxGeometry width="50" height="50" relative="1" as="geometry">
            <mxPoint x="280" y="340" as="sourcePoint" />
            <mxPoint x="330" y="290" as="targetPoint" />
          </mxGeometry>
        </mxCell>
      </root>
    </mxGraphModel>
  </diagram>
</mxfile>
